# xmcd
#
# Track frame offsets: 
#        150
#        12670
#        34492
#        49262
#        68657
#        87960
#        117160
#        133932
#        152222
#
# Disc length: 2288 seconds
#
# Revision: 0
# Processed by: cddbd v1.5.2PL0 Copyright (c) Steve Scherf et al.
# Submitted via: ExactAudioCopy v0.95b4
#
DISCID=7e08ee09
DTITLE=AJ Salas - 88 Reasons
DYEAR=2000
DGENRE=Blues
TTITLE0=Intro
TTITLE1=Side Walk Sun Day
TTITLE2=Jumbo Gumbo
TTITLE3=Midnight Hour Blues
TTITLE4=Staggering to New Orleans
TTITLE5=Madison Time
TTITLE6=How Long Blues
TTITLE7=Frances
TTITLE8=Blue Tango
EXTD=
EXTT0=
EXTT1=
EXTT2=
EXTT3=
EXTT4=
EXTT5=
EXTT6=
EXTT7=
EXTT8=
PLAYORDER=
